<?xml version="1.0" standalone="no"?>
<!DOCTYPE svg PUBLIC "-//W3C//DTD SVG 20010904//EN"
 "http://www.w3.org/TR/2001/REC-SVG-20010904/DTD/svg10.dtd">
<svg version="1.0" xmlns="http://www.w3.org/2000/svg"
 width="1200.000000pt" height="630.000000pt" viewBox="0 0 1200.000000 630.000000"
 preserveAspectRatio="xMidYMid meet">

<g transform="translate(0.000000,630.000000) scale(0.100000,-0.100000)"
fill="#000000" stroke="none">
<path d="M6168 4589 c-164 -38 -482 -294 -676 -542 -80 -103 -96 -130 -151
-247 -29 -63 -70 -113 -139 -171 -34 -28 -43 -74 -20 -97 9 -9 6 -17 -12 -37
-13 -14 -31 -25 -41 -25 -18 0 -55 -72 -51 -101 1 -9 -7 -19 -18 -22 -10 -3
-22 -17 -26 -32 -4 -16 -16 -37 -26 -47 -24 -24 -15 -37 10 -15 10 10 25 17
33 17 7 0 -1 -10 -19 -22 -17 -13 -30 -28 -28 -34 3 -6 1 -15 -2 -20 -4 -5 12
11 35 36 23 25 42 51 43 58 0 7 5 10 11 7 6 -4 8 -14 4 -23 -3 -9 -3 -13 1
-10 3 4 23 -4 42 -17 33 -22 38 -23 53 -9 9 8 20 31 23 50 4 19 11 34 16 34 6
0 10 9 10 20 0 12 7 20 18 20 9 0 28 3 41 7 17 4 22 3 17 -5 -9 -14 -9 -14 32
-3 17 5 44 6 60 2 15 -4 38 -4 52 0 l25 7 -26 1 c-48 2 -93 80 -55 94 7 3 46
58 86 122 159 256 318 422 578 603 122 85 176 114 205 110 20 -3 22 2 25 55 3
53 7 62 46 102 29 31 40 49 33 57 -7 10 -10 10 -14 -1 -3 -8 -20 -30 -38 -50
-27 -29 -35 -33 -48 -23 -8 7 -17 34 -19 61 -4 41 -33 102 -48 100 -3 -1 -22
-5 -42 -10z m-208 -224 c-107 -72 -218 -165 -314 -264 -54 -56 -100 -100 -102
-98 -7 6 39 57 143 160 104 102 278 237 306 237 12 0 0 -13 -33 -35z m285 -52
c-11 -2 -37 -11 -57 -19 -21 -7 -38 -12 -38 -9 0 11 58 34 85 33 20 0 23 -2
10 -5z m-265 -97 c0 -2 -30 -26 -67 -52 -75 -52 -310 -284 -339 -333 -16 -27
-42 -47 -50 -39 -4 5 82 106 163 192 103 108 253 234 281 235 6 1 12 -1 12 -3z
m-840 -815 c0 -5 -11 -11 -25 -13 -26 -5 -35 6 -12 15 20 9 37 8 37 -2z"/>
<path d="M4942 3180 c-12 -16 -19 -36 -16 -44 3 -9 1 -16 -6 -16 -6 0 -8 5 -4
13 4 6 -2 3 -14 -7 -26 -22 -28 -30 -7 -22 9 3 15 0 15 -9 0 -8 -4 -15 -10
-15 -5 0 -10 -7 -10 -16 0 -12 -7 -15 -27 -11 -36 7 -120 -64 -128 -108 -20
-97 -41 -164 -62 -197 -13 -21 -19 -38 -14 -38 10 0 72 74 90 108 l13 24 16
-24 c9 -12 22 -26 28 -31 7 -4 11 -14 8 -21 -3 -8 0 -17 5 -21 6 -3 9 -12 5
-18 -3 -7 2 -3 10 7 9 11 16 27 16 37 0 9 7 20 16 23 12 4 14 14 9 36 -9 40
16 81 44 73 26 -7 62 44 40 58 -20 12 -32 7 -44 -20 -8 -19 -15 -21 -42 -16
-25 4 -33 2 -33 -8 0 -8 -7 -20 -15 -27 -32 -27 -13 13 51 106 36 52 66 104
67 115 1 10 6 19 12 19 5 0 16 9 23 20 8 14 9 20 1 20 -6 0 -9 7 -6 15 11 27
-10 24 -31 -5z m28 -24 c0 -3 -4 -8 -10 -11 -5 -3 -10 -1 -10 4 0 6 5 11 10
11 6 0 10 -2 10 -4z"/>
<path d="M4730 2764 c0 -11 -32 -53 -74 -96 -40 -41 -76 -85 -79 -97 -18 -71
140 -1 217 95 l28 35 -23 20 c-16 14 -31 18 -48 14 -22 -6 -23 -4 -11 10 10
12 10 19 2 27 -9 9 -12 7 -12 -8z"/>
</g>
</svg>
