<?xml version="1.0" encoding="UTF-8"?>
<!DOCTYPE svg PUBLIC "-//W3C//DTD SVG 1.1//EN" "http://www.w3.org/Graphics/SVG/1.1/DTD/svg11.dtd">
<svg xmlns="http://www.w3.org/2000/svg" version="1.1" width="1200px" height="630px" style="shape-rendering:geometricPrecision; text-rendering:geometricPrecision; image-rendering:optimizeQuality; fill-rule:evenodd; clip-rule:evenodd" xmlns:xlink="http://www.w3.org/1999/xlink">
<g><path style="opacity:1" fill="#212526" d="M 627.5,201.5 C 626.817,199.824 625.483,199.157 623.5,199.5C 622.833,199.5 622.5,199.167 622.5,198.5C 623.791,198.737 624.791,198.404 625.5,197.5C 625.279,196.265 624.612,195.265 623.5,194.5C 624.309,192.929 624.643,191.262 624.5,189.5C 621.214,189.071 618.047,189.071 615,189.5C 614.075,188.953 613.242,188.287 612.5,187.5C 614.849,185.252 617.682,183.919 621,183.5C 620.474,176.997 618.974,176.83 616.5,183C 614.337,183.245 612.67,184.245 611.5,186C 608.112,186.659 604.779,186.492 601.5,185.5C 598.592,184.431 595.592,184.264 592.5,185C 577.48,196.489 563.813,209.322 551.5,223.5C 550.828,225.53 550.162,227.53 549.5,229.5C 550.091,230.151 550.757,230.818 551.5,231.5C 548.402,238.002 544.069,242.669 538.5,245.5C 539.04,246.748 539.707,247.915 540.5,249C 537.179,252.453 536.179,252.12 537.5,248C 536.87,246.69 535.87,245.856 534.5,245.5C 537.637,237.894 541.803,230.894 547,224.5C 564.551,202.275 585.718,184.441 610.5,171C 622.025,167.191 627.525,171.357 627,183.5C 627.414,183.957 627.914,184.291 628.5,184.5C 632.178,182.404 634.178,179.571 634.5,176C 637.793,176.298 639.293,178.131 639,181.5C 636.037,183.461 633.371,185.794 631,188.5C 630.231,191.099 630.398,193.599 631.5,196C 630.773,197.399 630.273,198.899 630,200.5C 629.329,201.252 628.496,201.586 627.5,201.5 Z"/></g>
<g><path style="opacity:1" fill="#2d3435" d="M 625.5,197.5 C 621.525,196.858 618.192,197.858 615.5,200.5C 614.5,200.5 613.5,200.5 612.5,200.5C 615.077,197.553 618.41,195.72 622.5,195C 619.905,194.774 617.405,194.274 615,193.5C 613.413,194.727 612.079,194.394 611,192.5C 610.804,194.286 609.971,195.619 608.5,196.5C 606.167,195.167 603.833,195.167 601.5,196.5C 600.833,195.833 600.167,195.167 599.5,194.5C 591.407,199.758 583.74,205.591 576.5,212C 575.833,212.667 575.167,212.667 574.5,212C 576.464,210.549 577.797,208.716 578.5,206.5C 585.472,200.349 592.805,194.683 600.5,189.5C 601.434,188.432 601.768,187.099 601.5,185.5C 604.779,186.492 608.112,186.659 611.5,186C 612.67,184.245 614.337,183.245 616.5,183C 618.974,176.83 620.474,176.997 621,183.5C 617.682,183.919 614.849,185.252 612.5,187.5C 613.242,188.287 614.075,188.953 615,189.5C 618.047,189.071 621.214,189.071 624.5,189.5C 624.643,191.262 624.309,192.929 623.5,194.5C 624.612,195.265 625.279,196.265 625.5,197.5 Z"/></g>
<g><path style="opacity:1" fill="#588c91" d="M 600.5,189.5 C 592.805,194.683 585.472,200.349 578.5,206.5C 576.142,208.529 573.808,210.529 571.5,212.5C 565.67,217.497 560.337,222.997 555.5,229C 554.552,229.483 553.552,229.649 552.5,229.5C 552.351,228.448 552.517,227.448 553,226.5C 555.043,224.792 556.71,222.792 558,220.5C 564.333,215.061 570.167,209.228 575.5,203C 582.21,198.319 588.876,193.652 595.5,189C 597.387,188.22 599.054,188.387 600.5,189.5 Z"/></g>
<g><path style="opacity:1" fill="#a0a3a4" d="M 625.5,197.5 C 624.791,198.404 623.791,198.737 622.5,198.5C 620.579,199.363 618.579,200.029 616.5,200.5C 616.167,200.5 615.833,200.5 615.5,200.5C 618.192,197.858 621.525,196.858 625.5,197.5 Z"/></g>
<g><path style="opacity:0.363" fill="#a4a7a7" d="M 623.5,199.5 C 625.483,199.157 626.817,199.824 627.5,201.5C 624.99,201.054 622.99,201.72 621.5,203.5C 621.167,203.5 620.833,203.5 620.5,203.5C 619.448,203.649 618.448,203.483 617.5,203C 619.618,201.918 621.618,200.751 623.5,199.5 Z"/></g>
<g><path style="opacity:0.004" fill="#131313" d="M 627.5,201.5 C 625.698,202.458 623.698,203.125 621.5,203.5C 622.99,201.72 624.99,201.054 627.5,201.5 Z"/></g>
<g><path style="opacity:1" fill="#535c5c" d="M 612.5,200.5 C 613.5,200.5 614.5,200.5 615.5,200.5C 615.833,200.5 616.167,200.5 616.5,200.5C 604.293,208.364 592.626,217.031 581.5,226.5C 581.062,226.565 580.728,226.399 580.5,226C 588.053,218.611 596.053,211.778 604.5,205.5C 606.822,203.336 609.489,201.669 612.5,200.5 Z"/></g>
<g><path style="opacity:0.764" fill="#7cf001" d="M 310.5,210.5 C 311.675,210.281 312.675,210.614 313.5,211.5C 312.754,212.736 312.421,214.07 312.5,215.5C 334.872,215.368 357.205,215.368 379.5,215.5C 386.806,231.445 394.639,247.112 403,262.5C 405.94,250.241 409.106,238.074 412.5,226C 409.833,225.667 407.167,225.333 404.5,225C 405.56,222.263 406.394,219.43 407,216.5C 407.5,216 408,215.5 408.5,215C 415.167,214.333 421.833,214.333 428.5,215C 423.833,232.667 419.167,250.333 414.5,268C 417.429,268.777 420.263,268.61 423,267.5C 431.5,253.667 440,239.833 448.5,226C 446.744,225.798 445.078,225.298 443.5,224.5C 444.642,221.601 445.308,218.601 445.5,215.5C 452.827,215.056 460.16,214.723 467.5,214.5C 470.167,239.5 472.833,264.5 475.5,289.5C 472.482,289.335 469.482,289.502 466.5,290C 465.663,291.011 465.33,292.178 465.5,293.5C 464.5,293.5 463.5,293.5 462.5,293.5C 462.5,292.167 462.5,290.833 462.5,289.5C 460.533,289.261 458.699,289.594 457,290.5C 456.833,290.167 456.667,289.833 456.5,289.5C 458.045,288.548 459.712,288.215 461.5,288.5C 461.5,285.5 461.5,282.5 461.5,279.5C 450.828,279.333 440.161,279.5 429.5,280C 427.5,283 425.5,286 423.5,289C 415.5,289.667 407.5,289.667 399.5,289C 391.899,272.964 383.899,257.131 375.5,241.5C 371.345,256.451 367.345,271.451 363.5,286.5C 369.995,288.387 369.662,289.387 362.5,289.5C 362.5,290.833 362.5,292.167 362.5,293.5C 361.5,293.5 360.5,293.5 359.5,293.5C 359.5,292.167 359.5,290.833 359.5,289.5C 336.982,289.38 314.315,289.38 291.5,289.5C 293.833,278.833 296.167,268.167 298.5,257.5C 296.833,257.5 295.167,257.5 293.5,257.5C 294.326,253.864 294.992,250.197 295.5,246.5C 297.792,246.756 299.959,246.423 302,245.5C 304.486,236.223 306.653,226.89 308.5,217.5C 307.022,217.762 305.689,217.429 304.5,216.5C 308.369,216.191 310.369,214.191 310.5,210.5 Z M 311.5,216.5 C 329.167,216.5 346.833,216.5 364.5,216.5C 364.38,219.48 363.713,222.313 362.5,225C 347.5,225.333 332.5,225.667 317.5,226C 315.287,232.684 313.621,239.518 312.5,246.5C 310.473,246.338 308.473,246.505 306.5,247C 308.869,247.314 311.036,248.148 313,249.5C 319.536,248.225 326.202,247.558 333,247.5C 339.167,247.667 345.333,247.833 351.5,248C 350.287,250.687 349.62,253.52 349.5,256.5C 336.524,257.105 323.691,256.438 311,254.5C 308.708,255.931 306.208,256.764 303.5,257C 305.5,257.333 307.5,257.667 309.5,258C 307.112,265.718 305.112,273.551 303.5,281.5C 318.5,281.5 333.5,281.5 348.5,281.5C 348.167,283.5 347.833,285.5 347.5,287.5C 329.833,287.5 312.167,287.5 294.5,287.5C 296.623,277.173 299.29,267.007 302.5,257C 300.527,256.505 298.527,256.338 296.5,256.5C 296.851,253.762 297.518,251.096 298.5,248.5C 300.396,247.534 302.396,247.201 304.5,247.5C 306.992,237.201 309.325,226.867 311.5,216.5 Z M 371.5,216.5 C 373.467,216.261 375.301,216.594 377,217.5C 386.068,237.304 395.902,256.638 406.5,275.5C 407.549,272.38 406.882,269.547 404.5,267C 408.227,253.593 411.727,240.093 415,226.5C 417.147,225.887 419.314,225.221 421.5,224.5C 417.217,223.508 412.884,223.174 408.5,223.5C 408.674,221.139 409.007,218.806 409.5,216.5C 414.5,216.5 419.5,216.5 424.5,216.5C 418.675,240.132 413.009,263.798 407.5,287.5C 405.396,287.799 403.396,287.466 401.5,286.5C 393.265,268.362 384.265,250.695 374.5,233.5C 369.691,250.736 365.191,268.07 361,285.5C 358.821,287.637 356.321,287.971 353.5,286.5C 359.507,263.138 365.507,239.804 371.5,216.5 Z M 448.5,216.5 C 454.303,215.913 459.803,216.58 465,218.5C 467.684,241.821 470.184,265.154 472.5,288.5C 469.833,288.5 467.167,288.5 464.5,288.5C 464.74,285.421 464.407,282.421 463.5,279.5C 452.515,278.668 441.515,278.168 430.5,278C 431.627,276.247 432.627,274.413 433.5,272.5C 433,272.167 432.5,271.833 432,271.5C 430.266,273.29 428.766,275.29 427.5,277.5C 425.577,278.308 423.577,278.808 421.5,279C 422.938,279.219 424.271,279.719 425.5,280.5C 424.167,282.833 422.833,285.167 421.5,287.5C 418.894,288.652 416.227,288.818 413.5,288C 415.5,285 417.5,282 419.5,279C 418.062,278.781 416.729,278.281 415.5,277.5C 416.482,274.904 417.149,272.238 417.5,269.5C 420.247,269.813 422.914,269.48 425.5,268.5C 434.251,254.666 442.751,240.666 451,226.5C 453.147,225.887 455.314,225.221 457.5,224.5C 453.878,223.675 450.211,223.175 446.5,223C 447.397,220.913 448.064,218.746 448.5,216.5 Z M 319.5,226.5 C 334.833,226.5 350.167,226.5 365.5,226.5C 361.161,244.856 356.661,263.19 352,281.5C 336.911,280.509 321.745,280.176 306.5,280.5C 308.325,272.867 309.992,265.2 311.5,257.5C 324.85,257.833 338.183,257.499 351.5,256.5C 352.427,253.287 353.427,250.12 354.5,247C 341.167,246.667 327.833,246.333 314.5,246C 316.554,239.616 318.221,233.116 319.5,226.5 Z M 411.5,279.5 C 412.873,279.343 414.207,279.51 415.5,280C 413.877,282.08 412.377,284.246 411,286.5C 410.982,284.203 411.149,281.869 411.5,279.5 Z"/></g>
<g><path style="opacity:0.852" fill="#7cf001" d="M 669.5,210.5 C 670.5,210.5 671.5,210.5 672.5,210.5C 672.714,212.144 672.38,213.644 671.5,215C 690.176,215.167 708.842,215.667 727.5,216.5C 726.573,219.713 725.573,222.88 724.5,226C 709.5,226.333 694.5,226.667 679.5,227C 677.446,233.384 675.779,239.884 674.5,246.5C 687.5,246.5 700.5,246.5 713.5,246.5C 712.674,250.136 712.008,253.803 711.5,257.5C 698.15,257.167 684.817,257.501 671.5,258.5C 669.573,265.711 667.573,272.878 665.5,280C 680.833,280.333 696.167,280.667 711.5,281C 710.287,283.687 709.62,286.52 709.5,289.5C 689.833,289.5 670.167,289.5 650.5,289.5C 652.779,278.885 655.445,268.385 658.5,258C 656.423,257.808 654.423,257.308 652.5,256.5C 653.488,253.55 654.321,250.55 655,247.5C 657.041,246.577 659.208,246.244 661.5,246.5C 663.287,236.851 665.621,227.351 668.5,218C 661.833,217 661.833,216 668.5,215C 669.38,213.644 669.714,212.144 669.5,210.5 Z M 671.5,216.5 C 689.17,216.333 706.836,216.5 724.5,217C 723.287,219.687 722.62,222.52 722.5,225.5C 707.152,225.167 691.819,225.501 676.5,226.5C 674.518,233.096 672.851,239.762 671.5,246.5C 669.473,246.338 667.473,246.505 665.5,247C 667.869,247.314 670.036,248.148 672,249.5C 678.536,248.225 685.202,247.558 692,247.5C 698.167,247.833 704.333,248.167 710.5,248.5C 709.518,251.096 708.851,253.762 708.5,256.5C 695.653,257.121 682.986,256.454 670.5,254.5C 668.453,256.015 666.119,256.849 663.5,257C 665.256,257.202 666.922,257.702 668.5,258.5C 666.5,265.833 664.5,273.167 662.5,280.5C 677.822,281.333 693.156,281.833 708.5,282C 707.833,283.667 707.167,285.333 706.5,287C 688.833,287.667 671.167,287.667 653.5,287C 656.239,277.211 658.906,267.378 661.5,257.5C 659.577,256.692 657.577,256.192 655.5,256C 656.713,253.313 657.38,250.48 657.5,247.5C 659.792,247.756 661.959,247.423 664,246.5C 666.505,236.482 669.005,226.482 671.5,216.5 Z"/></g>
<g><path style="opacity:1" fill="#34575a" d="M 601.5,185.5 C 601.768,187.099 601.434,188.432 600.5,189.5C 599.054,188.387 597.387,188.22 595.5,189C 588.876,193.652 582.21,198.319 575.5,203C 570.167,209.228 564.333,215.061 558,220.5C 556.71,222.792 555.043,224.792 553,226.5C 552.517,227.448 552.351,228.448 552.5,229.5C 551.5,229.5 550.5,229.5 549.5,229.5C 550.162,227.53 550.828,225.53 551.5,223.5C 563.813,209.322 577.48,196.489 592.5,185C 595.592,184.264 598.592,184.431 601.5,185.5 Z"/></g>
<g><path style="opacity:0.703" fill="#7cf001" d="M 244.5,215.5 C 258.837,215.333 273.171,215.5 287.5,216C 295.21,218.24 298.876,223.407 298.5,231.5C 296.848,244.82 289.514,253.153 276.5,256.5C 278.621,267.484 281.288,278.318 284.5,289C 280.5,289.333 276.5,289.667 272.5,290C 273.337,291.011 273.67,292.178 273.5,293.5C 272.5,293.5 271.5,293.5 270.5,293.5C 270.67,292.178 270.337,291.011 269.5,290C 260.367,289.455 260.367,288.455 269.5,287C 266.833,277.333 264.167,267.667 261.5,258C 256.581,257.198 251.748,257.365 247,258.5C 244.339,268.811 241.839,279.144 239.5,289.5C 235.167,289.5 230.833,289.5 226.5,289.5C 228.833,278.833 231.167,268.167 233.5,257.5C 231.801,257.66 230.134,257.494 228.5,257C 229.573,253.88 230.573,250.713 231.5,247.5C 233.341,246.77 235.175,246.103 237,245.5C 239.505,235.482 242.005,225.482 244.5,215.5 Z M 247.5,216.5 C 260.171,216.333 272.838,216.5 285.5,217C 294.818,221.129 297.985,227.963 295,237.5C 290.618,247.452 283.118,253.786 272.5,256.5C 275.639,266.725 278.306,277.058 280.5,287.5C 277.753,287.813 275.086,287.48 272.5,286.5C 269.421,276.265 266.755,265.932 264.5,255.5C 258.824,255.666 253.157,255.499 247.5,255C 248.337,253.989 248.67,252.822 248.5,251.5C 247.5,251.5 246.5,251.5 245.5,251.5C 245.67,252.822 245.337,253.989 244.5,255C 237.833,256 237.833,257 244.5,258C 241.833,267.667 239.167,277.333 236.5,287C 234.098,287.814 231.765,287.647 229.5,286.5C 232.167,276.5 234.833,266.5 237.5,256.5C 235.955,255.548 234.288,255.215 232.5,255.5C 232.833,252.833 233.167,250.167 233.5,247.5C 236.079,247.917 238.246,247.25 240,245.5C 242.352,235.756 244.852,226.089 247.5,216.5 Z"/></g>
<g><path style="opacity:0.698" fill="#7df001" d="M 747.5,215.5 C 752.511,215.334 757.511,215.501 762.5,216C 770.343,219.648 773.343,225.815 771.5,234.5C 772.675,234.281 773.675,234.614 774.5,235.5C 771.02,236.057 769.353,238.057 769.5,241.5C 768.325,241.719 767.325,241.386 766.5,240.5C 767.246,239.264 767.579,237.93 767.5,236.5C 764.102,236.82 760.768,236.487 757.5,235.5C 759.235,230.638 757.568,227.638 752.5,226.5C 748.179,227.077 744.679,229.077 742,232.5C 741.254,235.789 742.42,238.289 745.5,240C 752.073,242.867 758.239,246.367 764,250.5C 768.979,257.069 769.645,264.069 766,271.5C 756.671,287.077 743.171,292.577 725.5,288C 715.676,284.193 711.676,277.026 713.5,266.5C 711.473,266.662 709.473,266.495 707.5,266C 709.594,264.648 711.927,264.148 714.5,264.5C 714.174,261.243 715.507,259.743 718.5,260C 717.62,261.356 717.286,262.856 717.5,264.5C 720.898,264.18 724.232,264.513 727.5,265.5C 726.209,273.399 729.709,277.733 738,278.5C 746.659,277.993 752.159,273.659 754.5,265.5C 754.255,262.082 752.588,259.582 749.5,258C 742.066,255.205 735.566,251.038 730,245.5C 726.526,237.377 727.859,230.044 734,223.5C 738.189,220.109 742.689,217.442 747.5,215.5 Z M 751.5,216.5 C 764.377,215.76 770.043,221.76 768.5,234.5C 765.813,234.664 763.146,234.497 760.5,234C 761.738,227.557 758.905,224.39 752,224.5C 743.521,224.978 739.188,229.311 739,237.5C 744.411,242.46 750.578,246.294 757.5,249C 765.769,254.839 767.602,262.339 763,271.5C 753.694,285.936 740.861,290.436 724.5,285C 717.665,280.352 714.998,273.852 716.5,265.5C 719.167,265.5 721.833,265.5 724.5,265.5C 723.239,272.392 725.905,276.892 732.5,279C 742.193,280.884 750.026,278.05 756,270.5C 758.835,264.643 757.669,259.81 752.5,256C 745.066,253.205 738.566,249.038 733,243.5C 729.443,234.82 731.61,227.654 739.5,222C 743.284,219.471 747.284,217.638 751.5,216.5 Z"/></g>
<g><path style="opacity:1" fill="#528388" d="M 597.5,204.5 C 598.404,205.209 598.737,206.209 598.5,207.5C 581.917,218.582 567.75,232.248 556,248.5C 554.89,250.037 553.39,250.703 551.5,250.5C 551.826,247.689 552.659,245.022 554,242.5C 562.965,234.032 571.465,225.032 579.5,215.5C 583.857,212.136 588.191,208.802 592.5,205.5C 594.045,204.548 595.712,204.215 597.5,204.5 Z"/></g>
<g><path style="opacity:1" fill="#303536" d="M 622.5,198.5 C 622.5,199.167 622.833,199.5 623.5,199.5C 621.618,200.751 619.618,201.918 617.5,203C 618.448,203.483 619.448,203.649 620.5,203.5C 605.398,212.258 591.398,222.592 578.5,234.5C 577.167,234.167 575.833,233.833 574.5,233.5C 576.64,230.939 578.973,228.605 581.5,226.5C 592.626,217.031 604.293,208.364 616.5,200.5C 618.579,200.029 620.579,199.363 622.5,198.5 Z"/></g>
<g><path style="opacity:1" fill="#1f2628" d="M 612.5,200.5 C 609.489,201.669 606.822,203.336 604.5,205.5C 602.5,206.167 600.5,206.833 598.5,207.5C 598.737,206.209 598.404,205.209 597.5,204.5C 595.989,202.559 593.989,202.059 591.5,203C 575.248,214.75 561.582,228.917 550.5,245.5C 549.953,247.518 548.953,249.351 547.5,251C 548.624,251.249 549.624,251.749 550.5,252.5C 548.117,254.76 545.451,256.76 542.5,258.5C 545.777,259.479 546.11,260.813 543.5,262.5C 539.56,260.764 537.893,262.097 538.5,266.5C 538.672,267.492 538.338,268.158 537.5,268.5C 537.785,266.712 537.452,265.045 536.5,263.5C 534.5,264.833 532.833,266.5 531.5,268.5C 541.54,249.559 554.707,232.559 571,217.5C 571.273,215.671 572.107,214.171 573.5,213C 572.906,212.536 572.239,212.369 571.5,212.5C 573.808,210.529 576.142,208.529 578.5,206.5C 577.797,208.716 576.464,210.549 574.5,212C 575.167,212.667 575.833,212.667 576.5,212C 583.74,205.591 591.407,199.758 599.5,194.5C 600.167,195.167 600.833,195.833 601.5,196.5C 603.833,195.167 606.167,195.167 608.5,196.5C 609.971,195.619 610.804,194.286 611,192.5C 612.079,194.394 613.413,194.727 615,193.5C 617.405,194.274 619.905,194.774 622.5,195C 618.41,195.72 615.077,197.553 612.5,200.5 Z"/></g>
<g><path style="opacity:1" fill="#325658" d="M 597.5,204.5 C 595.712,204.215 594.045,204.548 592.5,205.5C 588.191,208.802 583.857,212.136 579.5,215.5C 571.465,225.032 562.965,234.032 554,242.5C 552.659,245.022 551.826,247.689 551.5,250.5C 550.549,249.081 550.216,247.415 550.5,245.5C 561.582,228.917 575.248,214.75 591.5,203C 593.989,202.059 595.989,202.559 597.5,204.5 Z"/></g>
<g><path style="opacity:0.786" fill="#7cf001" d="M 252.5,225.5 C 262.839,225.334 273.172,225.5 283.5,226C 289.866,232.396 289.533,238.729 282.5,245C 281.167,245.667 279.833,246.333 278.5,247C 266.167,247.667 253.833,247.667 241.5,247C 252.5,246.667 263.5,246.333 274.5,246C 280.6,244.233 284.266,240.233 285.5,234C 285.297,231.594 284.297,229.594 282.5,228C 273.248,226.583 263.915,226.083 254.5,226.5C 253.659,231.532 252.659,236.532 251.5,241.5C 250.5,241.5 249.5,241.5 248.5,241.5C 249.525,236.067 250.858,230.733 252.5,225.5 Z"/></g>
<g><path style="opacity:1" fill="#36474b" d="M 604.5,205.5 C 596.053,211.778 588.053,218.611 580.5,226C 580.728,226.399 581.062,226.565 581.5,226.5C 578.973,228.605 576.64,230.939 574.5,233.5C 568.658,239.179 563.325,245.346 558.5,252C 556.456,251.165 554.123,250.665 551.5,250.5C 553.39,250.703 554.89,250.037 556,248.5C 567.75,232.248 581.917,218.582 598.5,207.5C 600.5,206.833 602.5,206.167 604.5,205.5 Z"/></g>
<g><path style="opacity:0.679" fill="#7df001" d="M 456.5,229.5 C 457.725,230.152 458.392,231.319 458.5,233C 460.204,245.467 461.538,257.967 462.5,270.5C 450.814,270.832 439.148,270.499 427.5,269.5C 438.146,268.501 448.813,268.168 459.5,268.5C 458.663,257.804 457.497,247.137 456,236.5C 450.417,246.002 444.584,255.335 438.5,264.5C 437.692,264.192 437.025,263.692 436.5,263C 443.315,251.861 449.982,240.694 456.5,229.5 Z"/></g>
<g><path style="opacity:1" fill="#272d2d" d="M 571.5,212.5 C 572.239,212.369 572.906,212.536 573.5,213C 572.107,214.171 571.273,215.671 571,217.5C 554.707,232.559 541.54,249.559 531.5,268.5C 532.833,266.5 534.5,264.833 536.5,263.5C 537.452,265.045 537.785,266.712 537.5,268.5C 535.247,273.335 532.247,277.669 528.5,281.5C 529.035,283.101 530.035,283.601 531.5,283C 537.185,277.46 540.518,270.96 541.5,263.5C 540.265,264.34 539.265,265.34 538.5,266.5C 537.893,262.097 539.56,260.764 543.5,262.5C 546.11,260.813 545.777,259.479 542.5,258.5C 545.451,256.76 548.117,254.76 550.5,252.5C 549.624,251.749 548.624,251.249 547.5,251C 548.953,249.351 549.953,247.518 550.5,245.5C 550.216,247.415 550.549,249.081 551.5,250.5C 554.123,250.665 556.456,251.165 558.5,252C 563.325,245.346 568.658,239.179 574.5,233.5C 575.833,233.833 577.167,234.167 578.5,234.5C 565.393,248.043 554.227,263.043 545,279.5C 543.383,281.763 541.55,283.763 539.5,285.5C 538.685,283.092 537.019,282.259 534.5,283C 535.275,286.791 535.941,290.624 536.5,294.5C 536.167,294.5 535.833,294.5 535.5,294.5C 532.843,290.514 530.176,290.514 527.5,294.5C 526.833,294.833 526.167,295.167 525.5,295.5C 525.238,293.436 524.071,292.103 522,291.5C 520.872,289.655 520.372,287.655 520.5,285.5C 522.163,283.562 522.829,281.228 522.5,278.5C 520.5,278.5 518.5,278.5 516.5,278.5C 514.863,274.328 515.196,270.328 517.5,266.5C 520.609,264.525 523.443,262.192 526,259.5C 529.523,255.168 532.356,250.501 534.5,245.5C 535.87,245.856 536.87,246.69 537.5,248C 536.179,252.12 537.179,252.453 540.5,249C 539.707,247.915 539.04,246.748 538.5,245.5C 544.069,242.669 548.402,238.002 551.5,231.5C 550.757,230.818 550.091,230.151 549.5,229.5C 550.5,229.5 551.5,229.5 552.5,229.5C 553.552,229.649 554.552,229.483 555.5,229C 560.337,222.997 565.67,217.497 571.5,212.5 Z"/></g>
<g><path style="opacity:1" fill="#4a6f70" d="M 537.5,268.5 C 538.338,268.158 538.672,267.492 538.5,266.5C 539.265,265.34 540.265,264.34 541.5,263.5C 540.518,270.96 537.185,277.46 531.5,283C 530.035,283.601 529.035,283.101 528.5,281.5C 532.247,277.669 535.247,273.335 537.5,268.5 Z"/></g>
<g><path style="opacity:1" fill="#16562c" d="M 516.5,278.5 C 518.5,278.5 520.5,278.5 522.5,278.5C 522.829,281.228 522.163,283.562 520.5,285.5C 519.18,286.942 517.514,287.608 515.5,287.5C 515.737,288.791 515.404,289.791 514.5,290.5C 514.03,289.307 513.03,288.64 511.5,288.5C 509.004,288.697 507.004,289.697 505.5,291.5C 506.437,288.731 507.604,286.064 509,283.5C 511.443,281.699 513.943,280.032 516.5,278.5 Z"/></g>
<g><path style="opacity:1" fill="#214c2e" d="M 539.5,285.5 C 540.962,289.459 543.795,291.792 548,292.5C 548.74,293.749 548.573,294.749 547.5,295.5C 546.666,294.252 545.333,293.585 543.5,293.5C 541.955,293.511 540.622,293.844 539.5,294.5C 538.5,294.5 537.5,294.5 536.5,294.5C 535.941,290.624 535.275,286.791 534.5,283C 537.019,282.259 538.685,283.092 539.5,285.5 Z"/></g>
<g><path style="opacity:0.825" fill="#7df001" d="M 629.5,215.5 C 652.948,212.759 661.115,222.426 654,244.5C 652.023,247.312 649.856,249.978 647.5,252.5C 652.731,267.887 648.064,279.387 633.5,287C 624.807,290.292 616.141,290.292 607.5,287C 602.533,281.336 601.199,274.836 603.5,267.5C 598.294,265.598 598.627,264.598 604.5,264.5C 604.116,262.335 604.783,260.668 606.5,259.5C 607.452,261.045 607.785,262.712 607.5,264.5C 610.85,264.335 614.183,264.502 617.5,265C 613.437,275.939 617.103,279.939 628.5,277C 635.168,273.832 637.668,268.665 636,261.5C 631.678,257.912 627.511,257.912 623.5,261.5C 622.614,260.675 622.281,259.675 622.5,258.5C 618.828,257.955 619.162,257.622 623.5,257.5C 623.692,254.399 624.358,251.399 625.5,248.5C 629.154,247.621 632.821,246.787 636.5,246C 642.553,242.396 644.553,237.229 642.5,230.5C 631.936,224.166 625.269,227.166 622.5,239.5C 619.215,240.324 615.882,240.824 612.5,241C 611.663,242.011 611.33,243.178 611.5,244.5C 610.325,244.719 609.325,244.386 608.5,243.5C 609.59,242.391 609.59,241.391 608.5,240.5C 607.391,241.59 606.391,241.59 605.5,240.5C 606.991,239.756 608.491,239.09 610,238.5C 612.069,226.941 618.569,219.275 629.5,215.5 Z M 635.5,216.5 C 654.103,219.108 658.937,228.775 650,245.5C 647.833,247.667 645.667,249.833 643.5,252C 649.294,261.488 648.294,270.322 640.5,278.5C 631.846,286.998 621.846,289.164 610.5,285C 604.713,280.149 603.38,274.315 606.5,267.5C 608.743,266.526 611.076,266.192 613.5,266.5C 611.357,271.502 612.357,275.669 616.5,279C 632.026,282.119 639.526,275.952 639,260.5C 638.097,259.299 636.931,258.465 635.5,258C 632.167,257.667 628.833,257.333 625.5,257C 626.713,254.313 627.38,251.48 627.5,248.5C 641.939,248.913 647.773,242.247 645,228.5C 639.159,225.121 632.992,224.621 626.5,227C 622.49,230.195 620.49,234.362 620.5,239.5C 617.813,239.664 615.146,239.497 612.5,239C 615.464,226.535 623.13,219.035 635.5,216.5 Z"/></g>
<g><path style="opacity:1" fill="#269755" d="M 514.5,290.5 C 512.914,291.148 511.247,291.648 509.5,292C 508.663,293.011 508.33,294.178 508.5,295.5C 507.5,295.5 506.5,295.5 505.5,295.5C 505.5,294.167 505.5,292.833 505.5,291.5C 507.004,289.697 509.004,288.697 511.5,288.5C 513.03,288.64 514.03,289.307 514.5,290.5 Z"/></g>
<g><path style="opacity:1" fill="#898a8a" d="M 535.5,294.5 C 535.158,295.338 534.492,295.672 533.5,295.5C 531.5,295.167 529.5,294.833 527.5,294.5C 530.176,290.514 532.843,290.514 535.5,294.5 Z"/></g>
<g><path style="opacity:0.984" fill="#5a9a6b" d="M 547.5,295.5 C 544.615,295.806 541.948,295.473 539.5,294.5C 540.622,293.844 541.955,293.511 543.5,293.5C 545.333,293.585 546.666,294.252 547.5,295.5 Z"/></g>
<g><path style="opacity:1" fill="#185b32" d="M 514.5,290.5 C 513.526,292.085 512.026,293.085 510,293.5C 509.506,295.134 509.34,296.801 509.5,298.5C 512.898,298.18 516.232,298.513 519.5,299.5C 518.675,300.386 517.675,300.719 516.5,300.5C 516.634,302.292 516.301,303.958 515.5,305.5C 514.041,305.567 512.708,305.234 511.5,304.5C 510.058,303.18 509.392,301.514 509.5,299.5C 507.362,299.297 505.695,298.297 504.5,296.5C 503.16,297.867 501.827,299.2 500.5,300.5C 501.774,297.24 503.44,294.24 505.5,291.5C 505.5,292.833 505.5,294.167 505.5,295.5C 506.5,295.5 507.5,295.5 508.5,295.5C 508.33,294.178 508.663,293.011 509.5,292C 511.247,291.648 512.914,291.148 514.5,290.5 Z"/></g>
<g><path style="opacity:0.059" fill="#1f2220" d="M 527.5,294.5 C 529.5,294.833 531.5,295.167 533.5,295.5C 531.32,296.794 529.32,296.461 527.5,294.5 Z"/></g>
<g><path style="opacity:0.955" fill="#7df001" d="M 377.5,301.5 C 384.508,301.334 391.508,301.5 398.5,302C 401.377,306.255 404.377,310.422 407.5,314.5C 406.184,318.429 405.184,322.429 404.5,326.5C 399.167,326.5 393.833,326.5 388.5,326.5C 390.854,321.545 389.521,318.211 384.5,316.5C 376.897,317.75 374.563,321.75 377.5,328.5C 381.796,329.328 386.129,329.828 390.5,330C 394.412,334.334 397.412,339.168 399.5,344.5C 398.466,350.302 396.966,355.968 395,361.5C 390.833,365 386.667,368.5 382.5,372C 374.939,373.598 367.272,373.931 359.5,373C 356.743,368.821 353.743,364.821 350.5,361C 352.046,356.981 353.046,352.815 353.5,348.5C 358.833,348.5 364.167,348.5 369.5,348.5C 367.146,353.455 368.479,356.789 373.5,358.5C 381.103,357.25 383.437,353.25 380.5,346.5C 376.204,345.672 371.871,345.172 367.5,345C 363.728,340.78 360.728,336.113 358.5,331C 359.765,325.105 361.265,319.272 363,313.5C 367.996,309.601 372.829,305.601 377.5,301.5 Z"/></g>
<g><path style="opacity:0.966" fill="#7cef01" d="M 413.5,301.5 C 418.833,301.5 424.167,301.5 429.5,301.5C 427.482,310.904 425.149,320.238 422.5,329.5C 427.6,331.46 431.933,330.46 435.5,326.5C 437.915,318.339 440.248,310.172 442.5,302C 447.833,301.333 453.167,301.333 458.5,302C 455.616,311.704 453.116,321.537 451,331.5C 448.86,333.64 446.694,335.806 444.5,338C 446.833,339.333 447.833,341.333 447.5,344C 445.086,353.821 442.753,363.654 440.5,373.5C 435.167,373.5 429.833,373.5 424.5,373.5C 426.184,365.429 428.184,357.429 430.5,349.5C 429.872,347.742 428.872,346.242 427.5,345C 424.518,344.502 421.518,344.335 418.5,344.5C 416.653,353.89 414.486,363.223 412,372.5C 406.584,373.639 401.084,373.806 395.5,373C 401.888,349.282 407.888,325.448 413.5,301.5 Z"/></g>
<g><path style="opacity:0.968" fill="#7cf001" d="M 533.5,301.5 C 539.167,301.5 544.833,301.5 550.5,301.5C 551.881,311.904 553.714,322.237 556,332.5C 558.661,322.189 561.161,311.856 563.5,301.5C 568.833,301.5 574.167,301.5 579.5,301.5C 573.833,325.5 568.167,349.5 562.5,373.5C 556.833,373.5 551.167,373.5 545.5,373.5C 543.992,362.789 542.158,352.123 540,341.5C 537.181,352.11 534.681,362.776 532.5,373.5C 527.167,373.5 521.833,373.5 516.5,373.5C 522.167,349.5 527.833,325.5 533.5,301.5 Z"/></g>
<g><path style="opacity:0.955" fill="#7cf001" d="M 594.5,301.5 C 601.508,301.334 608.508,301.5 615.5,302C 619.337,305.823 622.337,310.156 624.5,315C 623.806,318.78 622.806,322.447 621.5,326C 616.136,326.829 610.802,326.663 605.5,325.5C 607.708,318.713 605.374,315.879 598.5,317C 597.333,318.167 596.167,319.333 595,320.5C 591.7,331.367 588.867,342.367 586.5,353.5C 587.193,358.151 589.859,359.651 594.5,358C 597.892,355.715 599.559,352.548 599.5,348.5C 604.833,348.5 610.167,348.5 615.5,348.5C 615.147,352.913 614.314,357.246 613,361.5C 607.894,364.972 603.06,368.806 598.5,373C 591.5,373.667 584.5,373.667 577.5,373C 574.667,369.5 571.833,366 569,362.5C 572.017,346.427 575.683,330.427 580,314.5C 585.028,310.301 589.861,305.968 594.5,301.5 Z"/></g>
<g><path style="opacity:0.973" fill="#7cf001" d="M 631.5,301.5 C 636.844,301.334 642.177,301.501 647.5,302C 644.761,311.789 642.094,321.622 639.5,331.5C 643.783,332.492 648.116,332.826 652.5,332.5C 654.675,322.133 657.008,311.799 659.5,301.5C 664.833,301.5 670.167,301.5 675.5,301.5C 669.833,325.5 664.167,349.5 658.5,373.5C 652.824,373.666 647.157,373.499 641.5,373C 643.906,364.545 646.239,356.045 648.5,347.5C 644.217,346.508 639.884,346.174 635.5,346.5C 633.658,355.534 631.658,364.534 629.5,373.5C 624.167,373.5 618.833,373.5 613.5,373.5C 619.192,349.4 625.192,325.4 631.5,301.5 Z"/></g>
<g><path style="opacity:0.974" fill="#7cf001" d="M 690.5,301.5 C 697.508,301.334 704.508,301.5 711.5,302C 715.134,306.109 718.134,310.609 720.5,315.5C 715.514,334.775 710.848,354.109 706.5,373.5C 700.824,373.666 695.157,373.499 689.5,373C 692.379,363.649 694.713,354.149 696.5,344.5C 692.445,344.176 688.445,344.509 684.5,345.5C 681.851,354.762 679.518,364.096 677.5,373.5C 672.167,373.5 666.833,373.5 661.5,373.5C 666.172,353.81 671.006,334.144 676,314.5C 681.028,310.301 685.861,305.968 690.5,301.5 Z M 695.5,316.5 C 698.547,315.855 700.713,316.855 702,319.5C 702.458,322.558 702.124,325.558 701,328.5C 697.164,330.389 692.997,331.055 688.5,330.5C 688.218,324.396 690.552,319.73 695.5,316.5 Z"/></g>
<g><path style="opacity:0.964" fill="#7cef01" d="M 727.5,301.5 C 732.833,301.5 738.167,301.5 743.5,301.5C 745.223,312.174 747.057,322.841 749,333.5C 751.819,322.89 754.319,312.224 756.5,301.5C 761.833,301.5 767.167,301.5 772.5,301.5C 766.833,325.5 761.167,349.5 755.5,373.5C 749.833,373.5 744.167,373.5 738.5,373.5C 737.119,363.096 735.286,352.763 733,342.5C 730.339,352.811 727.839,363.144 725.5,373.5C 720.167,373.5 714.833,373.5 709.5,373.5C 715.192,349.4 721.192,325.4 727.5,301.5 Z"/></g>
<g><path style="opacity:0.965" fill="#7cf001" d="M 787.5,301.5 C 794.863,301.169 802.197,301.503 809.5,302.5C 811.808,305.975 814.308,309.308 817,312.5C 817.158,317.215 816.658,321.881 815.5,326.5C 810.167,326.5 804.833,326.5 799.5,326.5C 800.56,315.787 796.727,313.787 788,320.5C 785.011,331.457 782.177,342.457 779.5,353.5C 780.602,357.767 783.269,359.267 787.5,358C 791.593,354.684 793.927,350.35 794.5,345C 791.5,344.667 788.5,344.333 785.5,344C 786.833,339.667 788.167,335.333 789.5,331C 797.493,330.5 805.493,330.334 813.5,330.5C 811.535,341.194 808.868,351.694 805.5,362C 800.833,365.667 796.167,369.333 791.5,373C 784.253,373.812 777.086,373.646 770,372.5C 767.361,368.361 764.528,364.361 761.5,360.5C 765.488,345.548 769.321,330.548 773,315.5C 777.675,310.658 782.509,305.991 787.5,301.5 Z"/></g>
<g><path style="opacity:0.996" fill="#1f4d30" d="M 520.5,285.5 C 520.372,287.655 520.872,289.655 522,291.5C 524.071,292.103 525.238,293.436 525.5,295.5C 522.678,298.54 520.844,302.206 520,306.5C 516.641,308.695 513.807,311.362 511.5,314.5C 510.887,311.031 512.221,309.031 515.5,308.5C 515.5,307.5 515.5,306.5 515.5,305.5C 516.301,303.958 516.634,302.292 516.5,300.5C 517.675,300.719 518.675,300.386 519.5,299.5C 516.232,298.513 512.898,298.18 509.5,298.5C 509.34,296.801 509.506,295.134 510,293.5C 512.026,293.085 513.526,292.085 514.5,290.5C 515.404,289.791 515.737,288.791 515.5,287.5C 517.514,287.608 519.18,286.942 520.5,285.5 Z"/></g>
<g><path style="opacity:0.974" fill="#7cef01" d="M 824.5,302.5 C 837.5,302.5 850.5,302.5 863.5,302.5C 862.974,306.936 861.974,311.269 860.5,315.5C 852.528,316.498 844.528,316.831 836.5,316.5C 835.5,321.167 834.5,325.833 833.5,330.5C 839.5,330.5 845.5,330.5 851.5,330.5C 850.974,334.936 849.974,339.269 848.5,343.5C 842.202,344.496 835.868,344.83 829.5,344.5C 828.341,349.468 827.341,354.468 826.5,359.5C 834.167,359.5 841.833,359.5 849.5,359.5C 848.5,364.167 847.5,368.833 846.5,373.5C 833.15,373.833 819.817,373.499 806.5,372.5C 812.507,349.138 818.507,325.804 824.5,302.5 Z"/></g>
<g><path style="opacity:0.97" fill="#7cf001" d="M 866.5,302.5 C 877.505,302.333 888.505,302.5 899.5,303C 903.115,306.773 906.115,310.94 908.5,315.5C 907.156,321.21 905.656,326.877 904,332.5C 901.965,334.24 900.131,336.074 898.5,338C 899.723,339.72 900.723,341.553 901.5,343.5C 898.844,353.124 896.344,362.79 894,372.5C 888.584,373.639 883.084,373.806 877.5,373C 879.806,365.445 881.806,357.778 883.5,350C 882.792,346.127 880.458,344.294 876.5,344.5C 874.68,344.649 873.18,345.316 872,346.5C 869.672,355.477 867.506,364.477 865.5,373.5C 860.167,373.5 854.833,373.5 849.5,373.5C 855.325,349.868 860.991,326.202 866.5,302.5 Z M 879.5,316.5 C 886.819,314.681 890.319,317.347 890,324.5C 887.09,329.863 882.59,331.863 876.5,330.5C 877.185,325.761 878.185,321.095 879.5,316.5 Z"/></g>
<g><path style="opacity:0.145" fill="#0e2e13" d="M 500.5,300.5 C 500.155,303.198 498.822,305.198 496.5,306.5C 497.34,304.147 498.674,302.147 500.5,300.5 Z"/></g>
<g><path style="opacity:1" fill="#5df8b2" d="M 511.5,304.5 C 512.708,305.234 514.041,305.567 515.5,305.5C 515.5,306.5 515.5,307.5 515.5,308.5C 512.221,309.031 510.887,311.031 511.5,314.5C 511.5,314.833 511.5,315.167 511.5,315.5C 508.687,316.446 507.354,318.446 507.5,321.5C 507.167,321.5 506.833,321.5 506.5,321.5C 506.331,319.088 506.997,316.921 508.5,315C 508.37,313.941 507.87,313.108 507,312.5C 502.934,317.517 499.101,322.683 495.5,328C 492.738,329.077 491.072,328.244 490.5,325.5C 491.752,323.999 492.752,322.332 493.5,320.5C 496.971,314.43 501.304,308.93 506.5,304C 508.197,303.616 509.863,303.782 511.5,304.5 Z"/></g>
<g><path style="opacity:0.988" fill="#1a4f25" d="M 496.5,306.5 C 496.5,308.5 496.5,310.5 496.5,312.5C 494.315,312.704 492.315,313.37 490.5,314.5C 492.512,311.795 494.512,309.128 496.5,306.5 Z"/></g>
<g><path style="opacity:1" fill="#2b9b4e" d="M 511.5,304.5 C 509.863,303.782 508.197,303.616 506.5,304C 501.304,308.93 496.971,314.43 493.5,320.5C 493.631,319.624 493.298,318.957 492.5,318.5C 491.614,319.325 491.281,320.325 491.5,321.5C 490.5,321.5 489.5,321.5 488.5,321.5C 488.5,322.5 488.5,323.5 488.5,324.5C 487.5,324.5 486.5,324.5 485.5,324.5C 485.433,323.041 485.766,321.708 486.5,320.5C 488.252,318.754 489.585,316.754 490.5,314.5C 492.315,313.37 494.315,312.704 496.5,312.5C 496.5,310.5 496.5,308.5 496.5,306.5C 498.822,305.198 500.155,303.198 500.5,300.5C 501.827,299.2 503.16,297.867 504.5,296.5C 505.695,298.297 507.362,299.297 509.5,299.5C 509.392,301.514 510.058,303.18 511.5,304.5 Z"/></g>
<g><path style="opacity:0.376" fill="#0d3415" d="M 490.5,314.5 C 489.585,316.754 488.252,318.754 486.5,320.5C 486.167,320.5 485.833,320.5 485.5,320.5C 486.419,317.911 488.086,315.911 490.5,314.5 Z"/></g>
<g><path style="opacity:0.6" fill="#2e5242" d="M 511.5,315.5 C 510.525,317.795 509.192,319.795 507.5,321.5C 507.354,318.446 508.687,316.446 511.5,315.5 Z"/></g>
<g><path style="opacity:0.086" fill="#354b3e" d="M 506.5,321.5 C 506.833,321.5 507.167,321.5 507.5,321.5C 506.404,324.032 505.071,326.365 503.5,328.5C 503.629,326.784 503.962,325.117 504.5,323.5C 504.5,322.167 505.167,321.5 506.5,321.5 Z"/></g>
<g><path style="opacity:1" fill="#55f793" d="M 506.5,321.5 C 505.167,321.5 504.5,322.167 504.5,323.5C 501.833,326.833 499.167,330.167 496.5,333.5C 494.716,332.107 492.716,331.607 490.5,332C 489.663,333.011 489.33,334.178 489.5,335.5C 487.219,335.923 485.552,335.256 484.5,333.5C 486.147,330.527 488.147,327.86 490.5,325.5C 491.072,328.244 492.738,329.077 495.5,328C 499.101,322.683 502.934,317.517 507,312.5C 507.87,313.108 508.37,313.941 508.5,315C 506.997,316.921 506.331,319.088 506.5,321.5 Z"/></g>
<g><path style="opacity:1" fill="#1f7537" d="M 493.5,320.5 C 492.752,322.332 491.752,323.999 490.5,325.5C 488.147,327.86 486.147,330.527 484.5,333.5C 484.167,333.5 483.833,333.5 483.5,333.5C 480.916,332.952 479.916,331.285 480.5,328.5C 484.584,329.055 485.251,328.055 482.5,325.5C 483.18,324.14 483.847,322.807 484.5,321.5C 484.5,320.833 484.833,320.5 485.5,320.5C 485.833,320.5 486.167,320.5 486.5,320.5C 485.766,321.708 485.433,323.041 485.5,324.5C 486.5,324.5 487.5,324.5 488.5,324.5C 488.5,323.5 488.5,322.5 488.5,321.5C 489.5,321.5 490.5,321.5 491.5,321.5C 491.281,320.325 491.614,319.325 492.5,318.5C 493.298,318.957 493.631,319.624 493.5,320.5 Z"/></g>
<g><path style="opacity:0.502" fill="#122b19" d="M 481.5,323.5 C 478.132,327.861 474.798,332.194 471.5,336.5C 473.225,331.086 476.559,326.753 481.5,323.5 Z"/></g>
<g><path style="opacity:1" fill="#18532b" d="M 484.5,321.5 C 483.847,322.807 483.18,324.14 482.5,325.5C 485.251,328.055 484.584,329.055 480.5,328.5C 479.916,331.285 480.916,332.952 483.5,333.5C 482.529,335.483 481.529,337.483 480.5,339.5C 479.849,340.091 479.182,340.757 478.5,341.5C 478.167,340.833 477.833,340.167 477.5,339.5C 476.646,340.522 475.646,341.355 474.5,342C 475.624,342.249 476.624,342.749 477.5,343.5C 475.091,344.722 473.258,344.055 472,341.5C 471.667,343.5 471.333,345.5 471,347.5C 470.329,348.252 469.496,348.586 468.5,348.5C 470.005,344.647 471.005,340.647 471.5,336.5C 474.798,332.194 478.132,327.861 481.5,323.5C 481.973,322.094 482.973,321.427 484.5,321.5 Z"/></g>
<g><path style="opacity:0.514" fill="#83a694" d="M 504.5,323.5 C 503.962,325.117 503.629,326.784 503.5,328.5C 499.435,334.876 495.435,341.21 491.5,347.5C 490.833,347.5 490.167,347.5 489.5,347.5C 489.5,346.833 489.5,346.167 489.5,345.5C 491.25,344.341 492.25,342.674 492.5,340.5C 494.669,338.66 496.002,336.326 496.5,333.5C 499.167,330.167 501.833,326.833 504.5,323.5 Z"/></g>
<g><path style="opacity:1" fill="#2f9d55" d="M 496.5,333.5 C 496.002,336.326 494.669,338.66 492.5,340.5C 491.25,340.577 490.417,341.244 490,342.5C 489.329,341.748 488.496,341.414 487.5,341.5C 489,339.491 488.5,338.158 486,337.5C 484.669,338.996 483.169,340.329 481.5,341.5C 480.702,341.043 480.369,340.376 480.5,339.5C 481.529,337.483 482.529,335.483 483.5,333.5C 483.833,333.5 484.167,333.5 484.5,333.5C 485.552,335.256 487.219,335.923 489.5,335.5C 489.33,334.178 489.663,333.011 490.5,332C 492.716,331.607 494.716,332.107 496.5,333.5 Z"/></g>
<g><path style="opacity:1" fill="#55e68a" d="M 492.5,340.5 C 492.25,342.674 491.25,344.341 489.5,345.5C 487.896,344.713 487.229,343.38 487.5,341.5C 488.496,341.414 489.329,341.748 490,342.5C 490.417,341.244 491.25,340.577 492.5,340.5 Z"/></g>
<g><path style="opacity:1" fill="#247441" d="M 487.5,341.5 C 485.599,345.203 484.266,349.203 483.5,353.5C 482.914,353.709 482.414,354.043 482,354.5C 481.51,353.207 481.343,351.873 481.5,350.5C 480.5,350.5 479.5,350.5 478.5,350.5C 478.5,350.167 478.5,349.833 478.5,349.5C 478.241,345.932 476.241,344.599 472.5,345.5C 472.649,346.552 472.483,347.552 472,348.5C 470.251,350.621 468.418,352.621 466.5,354.5C 466.971,352.421 467.637,350.421 468.5,348.5C 469.496,348.586 470.329,348.252 471,347.5C 471.333,345.5 471.667,343.5 472,341.5C 473.258,344.055 475.091,344.722 477.5,343.5C 476.624,342.749 475.624,342.249 474.5,342C 475.646,341.355 476.646,340.522 477.5,339.5C 477.833,340.167 478.167,340.833 478.5,341.5C 479.182,340.757 479.849,340.091 480.5,339.5C 480.369,340.376 480.702,341.043 481.5,341.5C 483.169,340.329 484.669,338.996 486,337.5C 488.5,338.158 489,339.491 487.5,341.5 Z"/></g>
<g><path style="opacity:0.773" fill="#9ba9a2" d="M 489.5,347.5 C 490.167,347.5 490.833,347.5 491.5,347.5C 487.632,355.905 482.299,363.238 475.5,369.5C 474.508,369.672 473.842,369.338 473.5,368.5C 476.52,366.477 478.854,363.81 480.5,360.5C 481.338,360.158 481.672,359.492 481.5,358.5C 484.411,355.01 487.078,351.344 489.5,347.5 Z"/></g>
<g><path style="opacity:1" fill="#227c43" d="M 481.5,358.5 C 481.672,359.492 481.338,360.158 480.5,360.5C 476.785,361.441 473.119,361.774 469.5,361.5C 467.146,363.246 466.146,365.579 466.5,368.5C 463.873,369.092 461.206,369.425 458.5,369.5C 460.604,368.088 462.937,367.088 465.5,366.5C 465.269,363.215 466.603,360.715 469.5,359C 472.78,358.944 475.78,358.111 478.5,356.5C 479.265,357.612 480.265,358.279 481.5,358.5 Z"/></g>
<g><path style="opacity:0.345" fill="#0d371c" d="M 466.5,354.5 C 466.031,357.643 464.364,359.977 461.5,361.5C 462.433,358.63 464.1,356.296 466.5,354.5 Z"/></g>
<g><path style="opacity:1" fill="#1d6136" d="M 480.5,360.5 C 478.854,363.81 476.52,366.477 473.5,368.5C 471.801,370.016 469.801,371.016 467.5,371.5C 466.353,371.182 465.519,370.516 465,369.5C 464.667,370.5 464.333,371.5 464,372.5C 462.374,372.146 460.541,372.146 458.5,372.5C 458.5,371.5 458.5,370.5 458.5,369.5C 461.206,369.425 463.873,369.092 466.5,368.5C 466.146,365.579 467.146,363.246 469.5,361.5C 473.119,361.774 476.785,361.441 480.5,360.5 Z"/></g>
<g><path style="opacity:0.149" fill="#24442d" d="M 459.5,363.5 C 459.262,365.404 458.262,366.738 456.5,367.5C 456.738,365.596 457.738,364.262 459.5,363.5 Z"/></g>
<g><path style="opacity:0.988" fill="#34a15e" d="M 487.5,341.5 C 487.229,343.38 487.896,344.713 489.5,345.5C 489.5,346.167 489.5,346.833 489.5,347.5C 487.078,351.344 484.411,355.01 481.5,358.5C 480.265,358.279 479.265,357.612 478.5,356.5C 475.78,358.111 472.78,358.944 469.5,359C 466.603,360.715 465.269,363.215 465.5,366.5C 462.937,367.088 460.604,368.088 458.5,369.5C 458.5,370.5 458.5,371.5 458.5,372.5C 457.89,373.391 457.557,374.391 457.5,375.5C 454.428,375.817 451.428,375.484 448.5,374.5C 450.855,371.68 453.522,369.346 456.5,367.5C 458.262,366.738 459.262,365.404 459.5,363.5C 459.833,362.5 460.5,361.833 461.5,361.5C 464.364,359.977 466.031,357.643 466.5,354.5C 468.418,352.621 470.251,350.621 472,348.5C 472.483,347.552 472.649,346.552 472.5,345.5C 476.241,344.599 478.241,345.932 478.5,349.5C 477.527,348.209 476.527,348.209 475.5,349.5C 474.548,351.045 474.215,352.712 474.5,354.5C 476.5,354.833 478.5,355.167 480.5,355.5C 480.635,353.446 479.968,351.779 478.5,350.5C 479.5,350.5 480.5,350.5 481.5,350.5C 481.343,351.873 481.51,353.207 482,354.5C 482.414,354.043 482.914,353.709 483.5,353.5C 484.266,349.203 485.599,345.203 487.5,341.5 Z"/></g>
<g><path style="opacity:1" fill="#43d982" d="M 478.5,349.5 C 478.5,349.833 478.5,350.167 478.5,350.5C 479.968,351.779 480.635,353.446 480.5,355.5C 478.5,355.167 476.5,354.833 474.5,354.5C 474.215,352.712 474.548,351.045 475.5,349.5C 476.527,348.209 477.527,348.209 478.5,349.5 Z"/></g>
<g><path style="opacity:1" fill="#31573e" d="M 473.5,368.5 C 473.842,369.338 474.508,369.672 475.5,369.5C 470.619,374.461 464.619,376.461 457.5,375.5C 457.557,374.391 457.89,373.391 458.5,372.5C 460.541,372.146 462.374,372.146 464,372.5C 464.333,371.5 464.667,370.5 465,369.5C 465.519,370.516 466.353,371.182 467.5,371.5C 469.801,371.016 471.801,370.016 473.5,368.5 Z"/></g>
</svg>
